<?xml version="1.0" encoding="utf-8"?>
<!-- Generator: Adobe Illustrator 25.4.1, SVG Export Plug-In . SVG Version: 6.00 Build 0)  -->
<svg version="1.1" id="Layer_1" xmlns="http://www.w3.org/2000/svg" xmlns:xlink="http://www.w3.org/1999/xlink" x="0px" y="0px"
	 viewBox="0 0 342.8 118" style="enable-background:new 0 0 342.8 118;" xml:space="preserve">
<style type="text/css">
	.st0{fill:#F0F0F0;}
	.st1{fill:#EA3A35;}
	.st2{fill:#D7D7D7;}
	.st3{fill:#252525;}
	.st4{fill:#CC9F53;}
	.st5{fill:#FFFFFF;}
	.st6{opacity:0.75;}
	.st7{fill:none;stroke:#F0F0F0;stroke-width:1.9642;stroke-linecap:round;stroke-linejoin:round;stroke-miterlimit:10;}
	.st8{fill:#252525;stroke:#F0F0F0;stroke-width:1.9642;stroke-linecap:round;stroke-linejoin:round;stroke-miterlimit:10;}
</style>
<g>
	<path class="st5" d="M77.3,82.7c0.1-0.1,0.1-0.3,0.2-0.4c0,0,0,0,0-0.1c0-0.1,0.1-0.2,0.1-0.3c0-0.1,0-0.1,0-0.2c0,0,0-0.1,0-0.1
		c0,0,0,0,0,0c-0.1-0.4-0.5-0.7-1-1.3c-0.7-0.8-1.1-2.2-1.1-3.3c0-0.4,0.2-0.8,0.4-1.1c0.2-0.6,0.5-1.2,0.3-1.8c0,0,0-0.1,0-0.1
		c0-0.1-0.1-0.1-0.1-0.2c-0.4-0.5-1.2-0.6-1.8-0.9c-0.9-0.6-1.8-1.6-2.1-2.7c-0.3-1,0.4-2.4-0.7-3.1c-0.2-0.1-0.5-0.2-0.8-0.2
		c-0.4,0-0.9,0-1.3-0.1c-0.5,0-0.9-0.1-1.4-0.3c-0.9-0.5-1.2-1.2-1.6-1.9c-0.6-0.9-1.2-1.7-2.5-1.4c-0.4,0.1-0.8,0.3-1.2,0.4
		c-0.7,0.1-1.4,0.1-2-0.1c0,0,0,0-0.1,0c0,0,0,0,0,0c-0.3-0.1-0.7-0.3-1-0.5c-0.8-0.5-1.2-1.4-2.1-1.5c-0.9,0-1.4,1-2.1,1.5
		c-0.3,0.2-0.6,0.3-1,0.5c0,0,0,0,0,0c0,0,0,0-0.1,0c-0.7,0.2-1.4,0.3-2,0.1c-0.4-0.1-0.9-0.3-1.2-0.4c-1.4-0.3-2,0.5-2.5,1.4
		c-0.4,0.7-0.6,1.4-1.6,1.9c-0.4,0.2-0.9,0.3-1.4,0.3c-0.5,0-0.9,0-1.3,0.1c-0.3,0-0.5,0.1-0.8,0.2c-1.1,0.6-0.5,2-0.7,3.1
		c-0.3,1-1.1,2.1-2.1,2.7c-0.6,0.4-1.4,0.4-1.8,0.9c-0.1,0.1-0.1,0.1-0.1,0.2c0,0,0,0.1,0,0.1c-0.2,0.6,0.1,1.1,0.3,1.8
		c0.2,0.4,0.3,0.8,0.4,1.1c0.1,1.1-0.3,2.5-1.1,3.3c-0.5,0.6-0.9,0.9-1,1.3c0,0,0,0,0,0c0,0,0,0.1,0,0.1c0,0.1,0,0.1,0,0.2
		c0,0.1,0,0.2,0.1,0.3c0,0,0,0,0,0.1c0,0.1,0.1,0.3,0.2,0.4c0,0,0,0,0,0c0,0.1,0.1,0.2,0.2,0.2c0.1,0.1,0.1,0.2,0.2,0.3
		c0.3,0.4,0.5,0.7,0.8,1c0.4,0.6,0.7,1.2,0.7,2.1c0,0.1,0,0.3-0.1,0.4c-0.1,0.6-0.5,1.3-0.6,1.9c0,0,0,0.1,0,0.1c0,0,0,0,0,0.1
		c0,0.1,0,0.2,0,0.3c0.1,0.7,0.6,1.1,1.1,1.3c0.2,0,0.3,0.1,0.5,0.2c0.3,0.1,0.5,0.3,0.7,0.4c0,0,0.1,0,0.1,0c0,0,0.1,0.1,0.1,0.1
		c0,0,0.1,0.1,0.1,0.1c0.5,0.4,0.9,1,1.1,1.6c0.3,0.7,0.4,1.4,0.4,2.2c0.2,1.5,0.8,1.2,2.4,1.5c0.5,0.1,1,0.2,1.4,0.4
		c0.1,0,0.1,0.1,0.2,0.1c0.4,0.2,0.7,0.4,1,0.7c0.1,0.1,0.2,0.2,0.2,0.3c0,0,0,0,0,0c0.1,0.1,0.2,0.2,0.3,0.4
		c0.1,0.1,0.2,0.2,0.2,0.3c0.4,0.7,0.5,1.4,1.1,1.7c0,0,0,0,0,0c0.1,0,0.2,0.1,0.3,0.1c0.1,0,0.1,0,0.2,0c0.1,0,0.1,0,0.2,0
		c0.8,0,1.7-0.6,2.5-0.7c1.1-0.1,2.2,0.3,3,0.9c0.6,0.5,1.1,1.1,1.7,1.2c0.6,0,1.1-0.6,1.7-1.2c0.8-0.7,1.9-1,3-0.9
		c0.8,0.1,1.7,0.7,2.5,0.7c0.1,0,0.1,0,0.2,0c0.1,0,0.1,0,0.2,0c0.1,0,0.2-0.1,0.3-0.1c0,0,0,0,0,0c0.6-0.3,0.7-1,1.1-1.7
		c0.1-0.1,0.1-0.2,0.2-0.3c0.1-0.1,0.2-0.3,0.3-0.4c0,0,0,0,0,0c0.1-0.1,0.1-0.2,0.2-0.3c0.3-0.3,0.7-0.5,1-0.7
		c0.1,0,0.1-0.1,0.2-0.1c0.5-0.2,1-0.3,1.4-0.4c1.6-0.3,2.2,0,2.4-1.5c0-0.8,0.1-1.5,0.4-2.2c0.2-0.6,0.6-1.1,1.1-1.6
		c0,0,0.1-0.1,0.1-0.1c0,0,0.1-0.1,0.1-0.1c0,0,0,0,0.1,0c0.2-0.1,0.4-0.3,0.7-0.4c0.2-0.1,0.3-0.1,0.5-0.2c0.5-0.2,1-0.6,1.1-1.3
		c0-0.1,0-0.2,0-0.3c0,0,0,0,0-0.1c0,0,0-0.1,0-0.1c-0.1-0.6-0.5-1.3-0.6-1.9c0-0.1-0.1-0.3-0.1-0.4c0-0.9,0.3-1.5,0.7-2.1
		c0.2-0.3,0.5-0.7,0.8-1c0.1-0.1,0.2-0.2,0.2-0.3C77.2,82.9,77.3,82.8,77.3,82.7C77.3,82.8,77.3,82.7,77.3,82.7"/>
	<g>
		<path class="st5" d="M213.9,71.2c-0.3,0-0.6-0.2-0.8-0.5c-2.2-5-6.6-7.9-11.5-7.9c-7.7,0-13,6.6-13,14.2c0,7.9,5.4,14.4,13,14.4
			c4.8,0,8.9-2.6,11.4-7.7c0.1-0.3,0.4-0.5,0.8-0.5l11.3,0c0.6,0,1,0.6,0.8,1.1c-3.4,11-13.1,18-24.2,18c-6.8,0-13.1-2.4-18.1-7.3
			c-5.2-5.1-7.5-11.3-7.5-18.6c0-12.9,11.1-24.5,25-24.5c6.7,0,12.1,1.8,16.9,6c4.3,3.7,6.9,7.8,8,12.3c0.1,0.5-0.3,1-0.9,1
			L213.9,71.2z"/>
		<path class="st5" d="M256.9,101.3c-0.5,0-0.9-0.4-0.9-0.9v-3.1h-0.1c-1.6,3.2-5.9,5.2-10.7,5.2c-10.8,0-18.2-8.5-18.2-19.5
			c0-10.8,7.8-19.4,18.2-19.4c4.5,0,8.6,1.8,10.7,5.1h0.1v-3c0-0.5,0.4-0.9,0.9-0.9h9.2c0.5,0,0.9,0.4,0.9,0.9v34.7
			c0,0.5-0.4,0.9-0.9,0.9H256.9z M246.3,92.4c7.3,0.5,12.6-9.3,8-15.5c-7.2-7.4-17-1-16.3,7.2C238.2,88.5,241.9,92.1,246.3,92.4z"/>
		<path class="st5" d="M271.4,117.1V65.8c0-0.5,0.4-0.9,0.9-0.9h8.5c0.5,0,0.9,0.4,0.9,0.9v3.1h0.2c2.9-3.6,6.9-5.2,11.4-5.2
			c10.4,0,17.7,8.5,17.7,19.8c0,10.4-7.3,19.1-17.7,19.1c-3.6,0-6.8-0.9-9.5-3.2c-0.6-0.5-1.4-0.1-1.4,0.6l0,17
			c0,0.5-0.4,0.9-0.9,0.9h-9.2C271.8,118,271.4,117.6,271.4,117.1z M300,83.2c0-5.1-3.9-9.3-9.2-9.3c-5,0-9.1,4.1-9.1,9.3
			c0,5.1,3.9,9.2,9.1,9.2S300,88.2,300,83.2z"/>
	</g>
	<g>
		<path class="st5" d="M29.2,74.9c-0.6-0.3-0.7-1.1-0.1-1.5c2.8-2.1,4.3-5.4,4.3-9c0-6.6-4.6-10.8-10.1-12.1
			c-1.7-0.4-4.3-0.6-7.7-0.6H0.9c-0.5,0-0.9,0.4-0.9,0.9v46.8c0,0.5,0.4,0.9,0.9,0.9h15.3c7.7,0,10.2-0.6,14-3.3
			c3.7-2.6,5.6-6.8,5.6-11.5C35.7,80.6,33.5,76.9,29.2,74.9z M11.9,63.6c0-0.5,0.4-0.9,0.9-0.9h4.1c3.1,0,4.7,1.1,4.7,3.7
			s-1.6,3.9-4.7,3.9h-4.1c-0.5,0-0.9-0.4-0.9-0.9V63.6z M18.2,89.4h-5.5c-0.5,0-0.9-0.4-0.9-0.9v-7.1c0-0.5,0.4-0.9,0.9-0.9h5.6
			c3.7,0,5.6,1.4,5.6,4.2C23.9,87.9,21.7,89.4,18.2,89.4z"/>
		<path class="st5" d="M113.4,51.8h-9.2c-0.5,0-0.9,0.4-0.9,0.9v10.4c0,0.5-0.4,0.9-0.9,0.9h-4.2H98h-4c-0.5,0-0.9-0.4-0.9-0.9V52.7
			c0-0.5-0.4-0.9-0.9-0.9h-9.2c-0.5,0-0.9,0.4-0.9,0.9v10.4c0,0.5-0.4,0.9-0.9,0.9h-3.6c-0.5,0-0.9,0.4-0.9,0.9v6.5
			c0,0.5,0.4,0.9,0.9,0.9h3.6c0.5,0,0.9,0.4,0.9,0.9v26.4c0,0.5,0.4,0.9,0.9,0.9h9.2c0.5,0,0.9-0.4,0.9-0.9V73.1
			c0-0.5,0.4-0.9,0.9-0.9h4h0.3h4.2c0.5,0,0.9,0.4,0.9,0.9v26.4c0,0.5,0.4,0.9,0.9,0.9h9.2c0.5,0,0.9-0.4,0.9-0.9V73.1
			c0-0.5,0.4-0.9,0.9-0.9h3.5c0.5,0,0.9-0.4,0.9-0.9v-6.5c0-0.5-0.4-0.9-0.9-0.9h-3.5c-0.5,0-0.9-0.4-0.9-0.9V52.7
			C114.2,52.2,113.8,51.8,113.4,51.8z"/>
		<path class="st5" d="M122.4,100.3h9.1c0.5,0,0.9-0.4,0.9-0.9V52.7c0-0.5-0.4-0.9-0.9-0.9h-9.1c-0.5,0-0.9,0.4-0.9,0.9v46.8
			C121.6,99.9,122,100.3,122.4,100.3z"/>
		<path class="st5" d="M173.6,82.6c0-11.3-8.3-19.9-19.2-19.9c-10.7,0-19.1,9-19.1,19.5c0,10.8,8.8,19.3,19.3,19.3
			c7.3,0,13.6-4.2,17.2-11.3c0.3-0.6-0.2-1.2-0.8-1.2l-9.4,0c-0.3,0-0.5,0.1-0.7,0.3c-1.7,2.1-3.6,3.1-6.4,3.1c-4,0-7.3-2.3-8.3-5.8
			c-0.2-0.6,0.3-1.1,0.8-1.1l25.5,0c0.4,0,0.8-0.3,0.9-0.7C173.6,84,173.6,83.4,173.6,82.6z M147.4,78.1c-0.6,0-1-0.6-0.8-1.2
			c1.2-3.1,4.3-5,7.8-5c3.7,0,6.7,2,7.9,5c0.2,0.6-0.2,1.2-0.8,1.2L147.4,78.1z"/>
	</g>
</g>
<g class="st6">
	<g>
		<path class="st4" d="M244.4,63.5l-4.6,1c-0.1,0-0.1,0.1-0.1,0.2l0.2,1c0,0.1,0,0.1-0.1,0.2l-1.1,0.2c-0.1,0-0.1,0-0.2-0.1
			l-0.8-3.8c0-0.1,0-0.1,0.1-0.2l1.1-0.2c0.1,0,0.1,0,0.2,0.1l0.2,1c0,0.1,0.1,0.1,0.2,0.1l4.6-1c0.1,0,0.1,0,0.2,0.1l0.3,1.3
			C244.5,63.4,244.5,63.5,244.4,63.5z"/>
		<path class="st4" d="M243.3,52.7c0,0,0,0.1-0.1,0.1l-2,1.5l0,0l1.9,0c0.1,0,0.1,0.1,0.1,0.1l0,1.3c0,0.1-0.1,0.1-0.1,0.1l-6.1,0.1
			c-0.1,0-0.1-0.1-0.1-0.1l0-2c0-0.7,0.1-1.2,0.2-1.5c0.3-0.7,1-1.2,2-1.2c0.9,0,1.7,0.5,2,1.4c0,0.1,0.1,0.1,0.2,0.1l1.8-1.5
			c0.1-0.1,0.2,0,0.2,0.1L243.3,52.7z M240.2,53.7c0-0.6-0.3-1-0.9-1c-0.6,0-0.9,0.4-0.8,1l0,0.5c0,0.1,0.1,0.1,0.1,0.1l1.5,0
			c0.1,0,0.1-0.1,0.1-0.1L240.2,53.7z"/>
		<path class="st4" d="M244.6,41.9l-0.8,0.1c-0.1,0-0.1,0-0.1,0.1l-0.4,2c0,0.1,0,0.1,0.1,0.1l0.7,0.4c0,0,0.1,0.1,0.1,0.1l-0.3,1.4
			c0,0.1-0.1,0.1-0.2,0.1l-5.5-3.7c0,0-0.1-0.1-0.1-0.1l0.2-1.1c0-0.1,0.1-0.1,0.1-0.1l6.5-1.1c0.1,0,0.2,0.1,0.2,0.2l-0.3,1.4
			C244.7,41.9,244.6,41.9,244.6,41.9z M240.1,42.4L240.1,42.4l1.8,1c0.1,0,0.2,0,0.2-0.1l0.2-1c0-0.1-0.1-0.2-0.1-0.2L240.1,42.4z"
			/>
		<path class="st4" d="M248.2,32.1l-4,0.5c-0.1,0-0.2,0.2,0,0.3l3,1.4c0.1,0,0.1,0.1,0.1,0.2l-0.5,1.2c0,0.1-0.1,0.1-0.2,0.1
			l-5.5-2.6c-0.1,0-0.1-0.1-0.1-0.2l0.5-1.1c0,0,0.1-0.1,0.1-0.1l4.2-0.5c0.1,0,0.2-0.2,0-0.3l-3.1-1.4c-0.1,0-0.1-0.1-0.1-0.2
			l0.6-1.2c0-0.1,0.1-0.1,0.2-0.1l5.5,2.6c0.1,0,0.1,0.1,0.1,0.2l-0.5,1.1C248.3,32.1,248.3,32.1,248.2,32.1z"/>
		<path class="st4" d="M249.8,21.4c0,0.1-0.1,0.1-0.2,0c-0.3-0.2-0.6-0.1-0.7,0.1c-0.2,0.2-0.2,0.6,0.1,0.8c0.3,0.2,0.6,0.1,1.3-0.3
			c1.3-0.8,2-0.7,2.6-0.2c1,0.8,1,1.9,0.2,3c-0.8,1.1-2,1.4-3.1,0.6l-0.1-0.1l0.9-1.2c0-0.1,0.1-0.1,0.2,0c0.4,0.2,0.8,0.2,1-0.1
			c0.2-0.3,0.2-0.7-0.1-0.9c-0.4-0.3-1,0.1-1.6,0.4c-1,0.6-1.7,0.6-2.4,0.1c-0.9-0.7-0.9-2-0.1-2.9c0.3-0.3,0.6-0.6,0.9-0.7
			c0.7-0.3,1.2-0.3,1.9,0.2c0.1,0,0.1,0.1,0,0.2L249.8,21.4z"/>
		<path class="st4" d="M257.7,19.2l-4.1-4.6c0-0.1,0-0.1,0-0.2l2.4-2.1c0.1,0,0.1,0,0.2,0l0.8,0.9c0,0.1,0,0.1,0,0.2l-1.2,1.1
			c-0.1,0-0.1,0.1,0,0.2l0.5,0.6c0,0.1,0.1,0.1,0.2,0l1.2-1.1c0.1,0,0.1,0,0.2,0l0.8,0.9c0,0.1,0,0.1,0,0.2l-1.2,1.1
			c-0.1,0-0.1,0.1,0,0.2l1.4,1.6c0,0.1,0,0.1,0,0.2l-1,0.9C257.9,19.2,257.8,19.2,257.7,19.2z"/>
		<path class="st4" d="M262.7,11.4c-1-1.7-0.5-3.7,1.2-4.7c1.6-0.9,3.6-0.4,4.5,1.2c0.9,1.6,0.4,3.6-1.2,4.5
			C265.7,13.4,263.6,13.1,262.7,11.4z M267.1,8.8c-0.5-0.9-1.5-1.3-2.4-0.8c-0.9,0.5-1.1,1.6-0.6,2.5c0.5,0.9,1.6,1.3,2.5,0.8
			C267.4,10.8,267.6,9.7,267.1,8.8z"/>
		<path class="st4" d="M277.8,8.1c0,0-0.1,0-0.1,0l-1.9-1.5l0,0l0.5,1.9c0,0.1,0,0.1-0.1,0.2l-1.2,0.4c-0.1,0-0.1,0-0.2-0.1L273,2.9
			c0-0.1,0-0.1,0.1-0.2l1.9-0.5c0.6-0.2,1.2-0.2,1.5-0.2c0.7,0.1,1.4,0.7,1.7,1.6c0.3,0.9,0,1.8-0.8,2.3c-0.1,0-0.1,0.2,0,0.2
			l1.9,1.3c0.1,0.1,0.1,0.2,0,0.2L277.8,8.1z M276,5.3c0.6-0.2,0.9-0.6,0.7-1.2c-0.2-0.5-0.6-0.7-1.2-0.5L275,3.7
			c-0.1,0-0.1,0.1-0.1,0.2l0.4,1.5c0,0.1,0.1,0.1,0.2,0.1L276,5.3z"/>
		<path class="st4" d="M289.7,6.4c-0.1,0-0.1-0.1-0.1-0.1l-0.2-4.6l0,0l-1.1,4.8c0,0.1-0.1,0.1-0.1,0.1l-0.9,0c-0.1,0-0.1,0-0.1-0.1
			l-1.3-3.7c0-0.1-0.3-0.1-0.3,0.1l0.2,3.7c0,0.1-0.1,0.1-0.1,0.1l-1.2,0.1c-0.1,0-0.1-0.1-0.1-0.1L284,0.5c0-0.1,0.1-0.1,0.1-0.1
			l1.9-0.1c0.1,0,0.1,0,0.1,0.1l1.4,4l0,0l1-4.2c0-0.1,0.1-0.1,0.1-0.1l1.9-0.1c0.1,0,0.1,0.1,0.1,0.1l0.3,6.1
			c0,0.1-0.1,0.1-0.1,0.1L289.7,6.4z"/>
		<path class="st4" d="M300.3,7.5l-0.1-0.8c0-0.1,0-0.1-0.1-0.1l-2-0.4c-0.1,0-0.1,0-0.1,0.1L297.5,7c0,0-0.1,0.1-0.1,0.1l-1.4-0.3
			c-0.1,0-0.1-0.1-0.1-0.2l3.6-5.5c0,0,0.1-0.1,0.1-0.1l1.1,0.2c0.1,0,0.1,0.1,0.1,0.1l1.2,6.5c0,0.1-0.1,0.2-0.2,0.2l-1.5-0.3
			C300.3,7.6,300.3,7.6,300.3,7.5z M299.8,3.1L299.8,3.1l-1,1.8c0,0.1,0,0.2,0.1,0.2l1,0.2c0.1,0,0.2-0.1,0.2-0.1L299.8,3.1z"/>
		<path class="st4" d="M307,9.6l1.8-4.3c0-0.1,0-0.1-0.1-0.2l-0.9-0.4c-0.1,0-0.1-0.1-0.1-0.2l0.4-1.1c0-0.1,0.1-0.1,0.2-0.1
			l3.6,1.5C312,4.9,312,5,312,5l-0.4,1.1c0,0.1-0.1,0.1-0.2,0.1l-0.9-0.4c-0.1,0-0.1,0-0.2,0.1l-1.8,4.3c0,0.1-0.1,0.1-0.2,0.1
			l-1.3-0.5C307,9.7,307,9.7,307,9.6z"/>
		<path class="st4" d="M313.9,13l3.2-5.2c0-0.1,0.1-0.1,0.2,0l1.2,0.7c0.1,0,0.1,0.1,0,0.2l-3.2,5.2c0,0.1-0.1,0.1-0.2,0l-1.2-0.7
			C313.9,13.1,313.9,13.1,313.9,13z"/>
		<path class="st4" d="M320.8,18.1l2.6-5.9c0-0.1,0.1-0.1,0.2,0l1,0.9c0,0,0.1,0.1,0,0.2l-2,4.1l0,0l3.9-2.4c0.1,0,0.1,0,0.2,0
			l1,0.9c0.1,0.1,0.1,0.2,0,0.2l-5.6,3.1c0,0-0.1,0-0.2,0l-1.1-1C320.8,18.2,320.8,18.2,320.8,18.1z"/>
		<path class="st4" d="M326.8,24.4l5-3.6c0.1,0,0.1,0,0.2,0l1.9,2.7c0,0.1,0,0.1,0,0.2l-0.9,0.7c-0.1,0-0.1,0-0.2,0l-1-1.4
			c0-0.1-0.1-0.1-0.2,0l-0.6,0.4c-0.1,0-0.1,0.1,0,0.2l1,1.3c0,0.1,0,0.1,0,0.2l-0.9,0.7c-0.1,0-0.1,0-0.2,0l-1-1.3
			c0-0.1-0.1-0.1-0.2,0l-0.7,0.5c-0.1,0-0.1,0.1,0,0.2l1,1.4c0,0.1,0,0.1,0,0.2l-0.9,0.7c-0.1,0-0.1,0-0.2,0l-1.9-2.7
			C326.7,24.5,326.7,24.4,326.8,24.4z"/>
		<path class="st4" d="M334,37.9l5.9-1.8c0.1,0,0.1,0,0.2,0.1l0.9,3.1c0,0.1,0,0.1-0.1,0.2l-1.1,0.3c-0.1,0-0.1,0-0.2-0.1l-0.5-1.6
			c0-0.1-0.1-0.1-0.2-0.1l-0.7,0.2c-0.1,0-0.1,0.1-0.1,0.2l0.5,1.6c0,0.1,0,0.1-0.1,0.2l-1.1,0.3c-0.1,0-0.1,0-0.2-0.1l-0.5-1.6
			c0-0.1-0.1-0.1-0.2-0.1l-0.8,0.2c-0.1,0-0.1,0.1-0.1,0.2l0.5,1.6c0,0.1,0,0.1-0.1,0.2l-1.1,0.3c-0.1,0-0.1,0-0.2-0.1L334,38
			C333.9,38,334,37.9,334,37.9z"/>
		<path class="st4" d="M336.4,50.4l3.2-2.4c0.1-0.1,0-0.2-0.1-0.2l-3.3,0.3c-0.1,0-0.1,0-0.1-0.1l-0.1-1.3c0-0.1,0-0.1,0.1-0.1
			l6.1-0.5c0.1,0,0.1,0,0.1,0.1l0.1,1.2c0,0,0,0.1-0.1,0.1l-3.4,2.5c-0.1,0.1,0,0.3,0.1,0.2l3.4-0.3c0.1,0,0.1,0,0.1,0.1l0.1,1.3
			c0,0.1,0,0.1-0.1,0.1l-6.1,0.5c-0.1,0-0.1,0-0.1-0.1l-0.1-1.2C336.4,50.5,336.4,50.4,336.4,50.4z"/>
		<path class="st4" d="M338.6,64.1c-1.7-0.3-3.2-1.8-2.8-3.9c0.3-1.9,2-3.1,3.8-2.8c1.9,0.3,3,2,2.7,3.9c-0.2,1.4-1.3,2.5-2.5,2.8
			c-0.1,0-0.2-0.1-0.2-0.2l0.2-1.6c0,0,0-0.1,0.1-0.1c0.5-0.2,0.9-0.7,1-1.2c0.2-1-0.5-1.8-1.6-2c-1-0.2-2,0.4-2.2,1.4
			c-0.1,0.7,0.1,1.2,0.6,1.6c0.1,0.1,0.2,0,0.2-0.1l0.2-1.6c0-0.1,0.1-0.1,0.2-0.1l1,0.2c0.1,0,0.1,0.1,0.1,0.2l-0.5,3.5
			c0,0.1-0.1,0.1-0.2,0.1L338.6,64.1z"/>
		<path class="st4" d="M332.5,71.9l0.8,0.1c0.1,0,0.1,0,0.1-0.1l0.8-1.9c0-0.1,0-0.1,0-0.1l-0.6-0.5c0,0-0.1-0.1,0-0.1l0.6-1.4
			c0-0.1,0.1-0.1,0.2,0l4.7,4.6c0,0,0.1,0.1,0,0.1l-0.4,1c0,0.1-0.1,0.1-0.1,0.1l-6.6-0.1c-0.1,0-0.2-0.1-0.1-0.2l0.6-1.4
			C332.4,71.9,332.5,71.9,332.5,71.9z M337,72.2L337,72.2l-1.6-1.3c-0.1-0.1-0.2,0-0.2,0.1l-0.4,0.9c0,0.1,0,0.2,0.1,0.2L337,72.2z"
			/>
		<path class="st4" d="M328.5,84.7c-1.4-1-2-3-0.8-4.7c1.1-1.5,3.2-1.9,4.7-0.8c1.6,1.1,1.8,3.2,0.7,4.7c-0.8,1.1-2.3,1.7-3.5,1.3
			c-0.1,0-0.1-0.1-0.1-0.2l0.9-1.3c0,0,0.1-0.1,0.1-0.1c0.6,0,1.1-0.2,1.4-0.7c0.6-0.8,0.3-1.9-0.5-2.5c-0.9-0.6-2-0.6-2.6,0.3
			c-0.4,0.6-0.5,1.2-0.2,1.7c0,0.1,0.2,0.1,0.2,0l0.9-1.3c0-0.1,0.1-0.1,0.2,0l0.8,0.6c0.1,0,0.1,0.1,0,0.2l-2,2.9
			c0,0.1-0.1,0.1-0.2,0L328.5,84.7z"/>
		<path class="st4" d="M322.4,86.5l4.1,4.5c0,0.1,0,0.1,0,0.2l-2.4,2.2c-0.1,0-0.1,0-0.2,0l-0.8-0.9c0-0.1,0-0.1,0-0.2l1.3-1.2
			c0.1,0,0.1-0.1,0-0.2l-0.5-0.5c0-0.1-0.1-0.1-0.2,0l-1.2,1.1c-0.1,0-0.1,0-0.2,0l-0.8-0.9c0-0.1,0-0.1,0-0.2l1.2-1.1
			c0.1,0,0.1-0.1,0-0.2l-0.6-0.6c0-0.1-0.1-0.1-0.2,0l-1.3,1.2c-0.1,0-0.1,0-0.2,0l-0.8-0.9c0-0.1,0-0.1,0-0.2l2.4-2.2
			C322.3,86.4,322.4,86.4,322.4,86.5z"/>
		<path class="st4" d="M310.9,94.6c0.1,0,0.1,0,0.2,0.1l2.2,4.1l0,0l-1.1-4.8c0-0.1,0-0.1,0.1-0.1l0.8-0.4c0.1,0,0.1,0,0.2,0
			l2.8,2.8c0.1,0.1,0.3,0,0.2-0.2l-1.8-3.2c0-0.1,0-0.1,0.1-0.2l1.1-0.6c0.1,0,0.1,0,0.2,0.1l3,5.3c0,0.1,0,0.1-0.1,0.2l-1.6,0.9
			c-0.1,0-0.1,0-0.2,0l-3.1-3l0,0l0.9,4.2c0,0.1,0,0.1-0.1,0.1l-1.6,0.9c-0.1,0-0.1,0-0.2-0.1l-3-5.3c0-0.1,0-0.1,0.1-0.2
			L310.9,94.6z"/>
		<path class="st4" d="M304.7,97.3l1.7,5.9c0,0.1,0,0.1-0.1,0.2l-3.1,0.9c-0.1,0-0.1,0-0.2-0.1l-0.3-1.1c0-0.1,0-0.1,0.1-0.2
			l1.7-0.5c0.1,0,0.1-0.1,0.1-0.2l-0.2-0.7c0-0.1-0.1-0.1-0.2-0.1l-1.6,0.5c-0.1,0-0.1,0-0.2-0.1l-0.3-1.1c0-0.1,0-0.1,0.1-0.2
			l1.6-0.5c0.1,0,0.1-0.1,0.1-0.2l-0.2-0.8c0-0.1-0.1-0.1-0.2-0.1l-1.7,0.5c-0.1,0-0.1,0-0.2-0.1l-0.3-1.1c0-0.1,0-0.1,0.1-0.2
			l3.1-0.9C304.6,97.2,304.7,97.2,304.7,97.3z"/>
		<path class="st4" d="M292.2,99.6l2.4,3.3c0.1,0.1,0.2,0,0.2-0.1l-0.3-3.3c0-0.1,0-0.1,0.1-0.1l1.3-0.1c0.1,0,0.1,0,0.1,0.1
			l0.5,6.1c0,0.1,0,0.1-0.1,0.1l-1.2,0.1c0,0-0.1,0-0.1-0.1l-2.5-3.4c-0.1-0.1-0.3,0-0.2,0.1l0.3,3.4c0,0.1,0,0.1-0.1,0.1l-1.3,0.1
			c-0.1,0-0.1,0-0.1-0.1l-0.5-6.1c0-0.1,0-0.1,0.1-0.1l1.2-0.1C292.1,99.5,292.2,99.5,292.2,99.6z"/>
		<path class="st4" d="M284.7,99.4l-0.6,4.7c0,0.1,0,0.1,0.1,0.1l1,0.1c0.1,0,0.1,0.1,0.1,0.1l-0.2,1.2c0,0.1-0.1,0.1-0.1,0.1
			l-3.8-0.5c-0.1,0-0.1-0.1-0.1-0.1l0.2-1.2c0-0.1,0.1-0.1,0.1-0.1l1,0.1c0.1,0,0.1,0,0.1-0.1l0.6-4.7c0-0.1,0.1-0.1,0.1-0.1
			l1.4,0.2C284.6,99.3,284.7,99.3,284.7,99.4z"/>
	</g>
	<g>
		<path class="st4" d="M259,52.9l-1.5-5.9c0-0.1,0-0.1,0.1-0.2l2-0.5c0.8-0.2,1.4-0.2,1.9-0.1c1,0.3,1.8,1.1,2.1,2.4
			c0.5,2-0.4,3.4-2.4,3.9l-2.1,0.5C259.1,53,259,52.9,259,52.9z M261,51c0.9-0.2,1.3-0.9,1.1-2.1c-0.3-1.1-1-1.6-1.9-1.3l-0.6,0.1
			c-0.1,0-0.1,0.1-0.1,0.2l0.8,3.2c0,0.1,0.1,0.1,0.2,0.1L261,51z"/>
		<path class="st4" d="M269.6,50.2l-1.5-5.9c0-0.1,0-0.1,0.1-0.2l1.3-0.3c0.1,0,0.1,0,0.2,0.1l1.5,5.9c0,0.1,0,0.1-0.1,0.2l-1.3,0.3
			C269.7,50.3,269.6,50.3,269.6,50.2z"/>
		<path class="st4" d="M282.2,43.8c0.4,1.7-0.4,3.6-2.5,4.1c-1.8,0.5-3.6-0.6-4.1-2.4c-0.5-1.9,0.7-3.6,2.5-4
			c1.3-0.3,2.8,0.2,3.5,1.2c0.1,0.1,0,0.2-0.1,0.2l-1.5,0.4c0,0-0.1,0-0.1,0c-0.7-0.7-1.7-0.6-2.7,0.3c0,0,0,0,0,0.1
			c-0.5,1.8,0.7,3.3,2.1,2.9c0.7-0.2,1.1-0.6,1.2-1.2c0-0.1-0.1-0.2-0.2-0.2l-1.5,0.4c-0.1,0-0.1,0-0.2-0.1l-0.3-1
			c0-0.1,0-0.1,0.1-0.2l3.4-0.9c0.1,0,0.1,0,0.2,0.1L282.2,43.8z"/>
		<path class="st4" d="M288.2,45.5l-1.5-5.9c0-0.1,0-0.1,0.1-0.2l1.3-0.3c0.1,0,0.1,0,0.2,0.1l1.5,5.9c0,0.1,0,0.1-0.1,0.2l-1.3,0.3
			C288.3,45.6,288.2,45.6,288.2,45.5z"/>
		<path class="st4" d="M295.9,43.6l-1.1-4.5c0-0.1-0.1-0.1-0.2-0.1l-1,0.2c-0.1,0-0.1,0-0.2-0.1l-0.3-1.1c0-0.1,0-0.1,0.1-0.2
			l3.8-0.9c0.1,0,0.1,0,0.2,0.1l0.3,1.1c0,0.1,0,0.1-0.1,0.2l-1,0.2c-0.1,0-0.1,0.1-0.1,0.2l1.1,4.5c0,0.1,0,0.1-0.1,0.2l-1.3,0.3
			C296,43.7,295.9,43.6,295.9,43.6z"/>
		<path class="st4" d="M307.3,40.7l-0.4-0.7c0,0-0.1-0.1-0.1-0.1l-2,0.5c-0.1,0-0.1,0.1-0.1,0.1l-0.1,0.8c0,0.1,0,0.1-0.1,0.1
			l-1.4,0.4c-0.1,0-0.2-0.1-0.2-0.1l0.9-6.5c0-0.1,0-0.1,0.1-0.1l1.1-0.3c0.1,0,0.1,0,0.1,0.1l3.9,5.3c0.1,0.1,0,0.2-0.1,0.2
			l-1.4,0.4C307.3,40.8,307.3,40.8,307.3,40.7z M304.9,36.9L304.9,36.9l-0.1,2.1c0,0.1,0.1,0.2,0.2,0.1l1-0.2c0.1,0,0.1-0.1,0.1-0.2
			L304.9,36.9z"/>
		<path class="st4" d="M313.9,39l-1.5-5.9c0-0.1,0-0.1,0.1-0.2l1.3-0.3c0.1,0,0.1,0,0.2,0.1l1.1,4.5c0,0.1,0.1,0.1,0.2,0.1l1.6-0.4
			c0.1,0,0.1,0,0.2,0.1l0.3,1.1c0,0.1,0,0.1-0.1,0.2l-3.2,0.8C314,39.1,314,39.1,313.9,39z"/>
		<path class="st4" d="M274.9,60.1c-0.1,0-0.1,0-0.2-0.1l-1.1-4.5l0,0l-0.1,4.9c0,0.1,0,0.1-0.1,0.1l-0.9,0.2c-0.1,0-0.1,0-0.1-0.1
			l-2-3.4c-0.1-0.1-0.3,0-0.2,0.1l0.9,3.6c0,0.1,0,0.1-0.1,0.2l-1.2,0.3c-0.1,0-0.1,0-0.2-0.1l-1.5-5.9c0-0.1,0-0.1,0.1-0.2l1.8-0.5
			c0.1,0,0.1,0,0.1,0.1l2.2,3.7l0,0l0.2-4.3c0-0.1,0-0.1,0.1-0.1l1.8-0.5c0.1,0,0.1,0,0.2,0.1l1.5,5.9c0,0.1,0,0.1-0.1,0.2
			L274.9,60.1z"/>
		<path class="st4" d="M281.7,58.3l-1.5-5.9c0-0.1,0-0.1,0.1-0.2l3.2-0.8c0.1,0,0.1,0,0.2,0.1l0.3,1.1c0,0.1,0,0.1-0.1,0.2l-1.7,0.4
			c-0.1,0-0.1,0.1-0.1,0.2l0.2,0.7c0,0.1,0.1,0.1,0.2,0.1l1.6-0.4c0.1,0,0.1,0,0.2,0.1l0.3,1.1c0,0.1,0,0.1-0.1,0.2l-1.6,0.4
			c-0.1,0-0.1,0.1-0.1,0.2l0.2,0.8c0,0.1,0.1,0.1,0.2,0.1l1.7-0.4c0.1,0,0.1,0,0.2,0.1l0.3,1.1c0,0.1,0,0.1-0.1,0.2l-3.2,0.8
			C281.8,58.4,281.7,58.3,281.7,58.3z"/>
		<path class="st4" d="M290.5,56l-1.5-5.9c0-0.1,0-0.1,0.1-0.2l3.2-0.8c0.1,0,0.1,0,0.2,0.1l0.3,1.1c0,0.1,0,0.1-0.1,0.2L291,51
			c-0.1,0-0.1,0.1-0.1,0.2l0.2,0.7c0,0.1,0.1,0.1,0.2,0.1l1.6-0.4c0.1,0,0.1,0,0.2,0.1l0.3,1.1c0,0.1,0,0.1-0.1,0.2l-1.6,0.4
			c-0.1,0-0.1,0.1-0.1,0.2l0.2,0.8c0,0.1,0.1,0.1,0.2,0.1l1.7-0.4c0.1,0,0.1,0,0.2,0.1l0.3,1.1c0,0.1,0,0.1-0.1,0.2l-3.2,0.8
			C290.6,56.2,290.6,56.1,290.5,56z"/>
		<path class="st4" d="M300.1,53.6l-1.1-4.5c0-0.1-0.1-0.1-0.2-0.1l-1,0.2c-0.1,0-0.1,0-0.2-0.1l-0.3-1.1c0-0.1,0-0.1,0.1-0.2
			l3.8-0.9c0.1,0,0.1,0,0.2,0.1l0.3,1.1c0,0.1,0,0.1-0.1,0.2l-1,0.2c-0.1,0-0.1,0.1-0.1,0.2l1.1,4.5c0,0.1,0,0.1-0.1,0.2l-1.3,0.3
			C300.1,53.8,300.1,53.7,300.1,53.6z"/>
		<path class="st4" d="M309.3,46.8c-0.1,0-0.1,0-0.2-0.1c-0.2-0.3-0.4-0.4-0.7-0.4c-0.3,0.1-0.5,0.3-0.4,0.6
			c0.1,0.4,0.5,0.5,1.2,0.6c1.5,0.2,2,0.6,2.2,1.5c0.3,1.2-0.3,2.1-1.7,2.4c-1.3,0.3-2.4-0.1-2.7-1.5l0-0.1l1.5-0.4
			c0.1,0,0.1,0,0.2,0.1c0.2,0.4,0.5,0.7,0.8,0.6c0.3-0.1,0.5-0.4,0.4-0.7c-0.1-0.5-0.9-0.5-1.5-0.6c-1.1-0.2-1.7-0.6-1.9-1.4
			c-0.3-1.1,0.6-2.1,1.7-2.4c0.4-0.1,0.8-0.1,1.2,0c0.7,0.2,1.1,0.5,1.4,1.3c0,0.1,0,0.1-0.1,0.2L309.3,46.8z"/>
		<path class="st4" d="M268.4,72.8l-0.4-0.7c0,0-0.1-0.1-0.1-0.1l-2,0.5c-0.1,0-0.1,0.1-0.1,0.1l-0.1,0.8c0,0.1,0,0.1-0.1,0.1
			l-1.4,0.4c-0.1,0-0.2-0.1-0.2-0.1l0.9-6.5c0-0.1,0-0.1,0.1-0.1l1.1-0.3c0.1,0,0.1,0,0.1,0.1l3.9,5.3c0.1,0.1,0,0.2-0.1,0.2
			l-1.4,0.4C268.5,72.9,268.4,72.8,268.4,72.8z M266,69L266,69l-0.1,2.1c0,0.1,0.1,0.2,0.2,0.1l1-0.2c0.1,0,0.1-0.1,0.1-0.2L266,69z
			"/>
		<path class="st4" d="M278.9,70.2l-2.9-2.8c-0.1-0.1-0.3,0-0.2,0.1l0.8,3.2c0,0.1,0,0.1-0.1,0.2l-1.3,0.3c-0.1,0-0.1,0-0.2-0.1
			l-1.5-5.9c0-0.1,0-0.1,0.1-0.2l1.2-0.3c0,0,0.1,0,0.1,0l3,2.9c0.1,0.1,0.3,0,0.2-0.1l-0.9-3.3c0-0.1,0-0.1,0.1-0.2l1.3-0.3
			c0.1,0,0.1,0,0.2,0.1l1.5,5.9c0,0.1,0,0.1-0.1,0.2l-1.2,0.3C278.9,70.2,278.9,70.2,278.9,70.2z"/>
		<path class="st4" d="M289.6,67.4l-0.4-0.7c0,0-0.1-0.1-0.1-0.1l-2,0.5c-0.1,0-0.1,0.1-0.1,0.1l-0.1,0.8c0,0.1,0,0.1-0.1,0.1
			l-1.4,0.4c-0.1,0-0.2-0.1-0.2-0.1l0.9-6.5c0-0.1,0-0.1,0.1-0.1l1.1-0.3c0.1,0,0.1,0,0.1,0.1l3.9,5.3c0.1,0.1,0,0.2-0.1,0.2
			l-1.4,0.4C289.7,67.5,289.7,67.5,289.6,67.4z M287.3,63.6L287.3,63.6l-0.1,2.1c0,0.1,0.1,0.2,0.2,0.1l1-0.2c0.1,0,0.1-0.1,0.1-0.2
			L287.3,63.6z"/>
		<path class="st4" d="M296.3,65.7l-1.5-5.9c0-0.1,0-0.1,0.1-0.2l1.3-0.3c0.1,0,0.1,0,0.2,0.1l1.1,4.5c0,0.1,0.1,0.1,0.2,0.1
			l1.6-0.4c0.1,0,0.1,0,0.2,0.1l0.3,1.1c0,0.1,0,0.1-0.1,0.2l-3.2,0.8C296.4,65.8,296.3,65.8,296.3,65.7z"/>
		<path class="st4" d="M303.6,60.9c-0.5-1.9,0.5-3.7,2.4-4.2c1.8-0.5,3.6,0.6,4.1,2.3c0.5,1.8-0.6,3.6-2.4,4.1
			C306,63.5,304.1,62.7,303.6,60.9z M308.5,59.5c-0.2-1-1.2-1.7-2.2-1.4c-1,0.2-1.5,1.3-1.2,2.2c0.3,1,1.2,1.7,2.2,1.4
			C308.3,61.5,308.8,60.5,308.5,59.5z"/>
		<path class="st4" d="M321.6,56.1c0.4,1.7-0.4,3.6-2.5,4.1c-1.8,0.5-3.6-0.6-4.1-2.4c-0.5-1.9,0.7-3.6,2.5-4
			c1.3-0.3,2.8,0.2,3.5,1.2c0.1,0.1,0,0.2-0.1,0.2l-1.5,0.4c0,0-0.1,0-0.1,0c-0.7-0.7-1.7-0.6-2.7,0.3c0,0,0,0,0,0.1
			c-0.5,1.8,0.7,3.3,2.1,2.9c0.7-0.2,1.1-0.6,1.2-1.2c0-0.1-0.1-0.2-0.2-0.2l-1.5,0.4c-0.1,0-0.1,0-0.2-0.1l-0.3-1
			c0-0.1,0-0.1,0.1-0.2l3.4-0.9c0.1,0,0.1,0,0.2,0.1L321.6,56.1z"/>
	</g>
</g>
</svg>
